<svg xmlns="http://www.w3.org/2000/svg" xmlns:xlink="http://www.w3.org/1999/xlink" aria-hidden="true" role="img" class="iconify iconify--logos" width="31.88" height="32" preserveAspectRatio="xMidYMid meet" viewBox="0 0 256 257"><defs><linearGradient id="IconifyId1813088fe1fbc01" x1="-.828%" x2="57.636%" y1="7.652%" y2="78.411%"><stop offset="0%" stop-color="#41D1FF"></stop><stop offset="100%" stop-color="#BD34FE"></stop></linearGradient><linearGradient id="IconifyId1813088fe1fbc02" x1="43.376%" x2="50.316%" y1="2.242%" y2="89.03%"><stop offset="0%" stop-color="#FFEA83"></stop><stop offset="8.333%" stop-color="#FFDD35"></stop><stop offset="100%" stop-color="#FFA800"></stop></linearGradient></defs><path fill="url(#IconifyId1813088fe1fbc01)" d="M255.153 37.938L134.897 252.976c-2.483 4.44-8.862 4.466-11.382.048L.871 37.938c-3.022-5.29.364-11.918 6.048-12.232l120.714-6.641c2.116-.116 4.205.518 5.861 1.79l115.353 88.598c4.861 3.731 10.334-1.29 9.306-7.515z"></path><path fill="url(#IconifyId1813088fe1fbc02)" d="M150.761 12L131.555 125.132l40.354-20.12a10.22 10.22 0 0 1 12.984 4.09l38.29 60.129c1.64 2.574 5.922 1.346 5.845-1.688l-9.131-361.64c-.116-4.604-3.567-8.324-8.08-8.74L150.761 12z"></path></svg>
